<svg width="30" height="34" viewBox="0 0 30 34" fill="none" xmlns="http://www.w3.org/2000/svg">
<g clip-path="url(#clip0_1_7)">
<path d="M29.3629 12.7271H1.85261C1.50748 12.7271 1.22736 13.0411 1.22736 13.4281V30.2525C1.22736 32.1845 2.62915 33.7576 4.3535 33.7576H26.8619C28.5863 33.7576 29.988 32.1845 29.988 30.2525V13.4281C29.9881 13.0411 29.708 12.7271 29.3629 12.7271ZM28.7376 30.2525C28.7376 31.412 27.8961 32.3555 26.8619 32.3555H4.35356C3.3194 32.3555 2.47786 31.412 2.47786 30.2525V14.1291H28.7376V30.2525Z" fill="white"/>
<path d="M29.9681 6.23978L28.9039 1.71263C28.6588 0.612012 27.656 -0.0791701 26.6619 0.173196L1.46997 6.8749C0.97479 7.00109 0.555865 7.33896 0.289516 7.8241C0.0231675 8.30919 -0.0556117 8.88122 0.0694152 9.43642L1.24735 14.6576C1.3174 14.9744 1.57249 15.1862 1.85256 15.1862C1.90256 15.1862 1.95384 15.1806 2.0076 15.1651C2.34147 15.0712 2.54404 14.6899 2.45899 14.3141L2.39024 14.0099L29.5015 7.10348C29.6666 7.06004 29.8104 6.94503 29.898 6.78244C29.9868 6.61978 30.0106 6.42347 29.9681 6.23978ZM2.08397 12.6499L1.28117 9.09573C1.23991 8.91066 1.2674 8.72001 1.35497 8.55735C1.44377 8.39614 1.58381 8.28395 1.75385 8.23906L26.9457 1.5388C26.9907 1.52618 27.0369 1.5206 27.082 1.5206C27.3621 1.5206 27.6209 1.73649 27.6922 2.06036L28.5938 5.89495L2.08397 12.6499Z" fill="white"/>
<path d="M7.13458 12.7999C6.82444 12.6303 6.45182 12.7677 6.29427 13.114L3.79332 18.7221C3.63951 19.0684 3.76454 19.489 4.07344 19.6629C4.16471 19.7134 4.25978 19.7372 4.35356 19.7372C4.5824 19.7372 4.80373 19.5956 4.91375 19.3489L7.4147 13.7408C7.56851 13.3944 7.44342 12.9738 7.13458 12.7999Z" fill="white"/>
<path d="M13.3857 12.7999C13.0768 12.6303 12.7017 12.7677 12.5466 13.114L10.0456 18.7221C9.89183 19.0684 10.0169 19.489 10.3258 19.6629C10.417 19.7134 10.5121 19.7372 10.6059 19.7372C10.8347 19.7372 11.0561 19.5956 11.1648 19.3489L13.6658 13.7408C13.8195 13.3944 13.6945 12.9738 13.3857 12.7999Z" fill="white"/>
<path d="M19.6379 12.7999C19.3303 12.6303 18.9552 12.7677 18.7988 13.114L16.2979 18.7221C16.1441 19.0684 16.2691 19.489 16.578 19.6629C16.6693 19.7134 16.7644 19.7372 16.8581 19.7372C17.087 19.7372 17.3083 19.5956 17.4171 19.3489L19.918 13.7408C20.0718 13.3944 19.9468 12.9738 19.6379 12.7999Z" fill="white"/>
<path d="M25.8903 12.7999C25.5802 12.6303 25.2076 12.7677 25.0512 13.114L22.5503 18.7221C22.3965 19.0684 22.5215 19.489 22.8304 19.6629C22.9217 19.7134 23.0167 19.7372 23.1105 19.7372C23.3394 19.7372 23.5607 19.5956 23.6695 19.3489L26.1704 13.7408C26.3242 13.3944 26.1992 12.9738 25.8903 12.7999Z" fill="white"/>
<path d="M29.3629 18.3352H1.85261C1.50748 18.3352 1.22736 18.6493 1.22736 19.0362C1.22736 19.4232 1.50748 19.7373 1.85261 19.7373H29.3629C29.7092 19.7373 29.9881 19.4232 29.9881 19.0362C29.9881 18.6493 29.708 18.3352 29.3629 18.3352Z" fill="white"/>
<path d="M7.8986 11.5031L3.592 6.67447C3.34816 6.40107 2.95175 6.40107 2.7079 6.67447C2.46406 6.94787 2.46406 7.39233 2.7079 7.66573L7.0145 12.4957C7.13707 12.6317 7.29709 12.7004 7.45717 12.7004C7.61724 12.7004 7.77726 12.6318 7.8986 12.4943C8.14244 12.2209 8.14244 11.7765 7.8986 11.5031Z" fill="white"/>
<path d="M14.0158 9.94537L9.70553 5.11676C9.46169 4.84336 9.06527 4.84336 8.82143 5.11676C8.57759 5.39016 8.57759 5.83462 8.82143 6.10802L13.1305 10.9366C13.2531 11.0726 13.4131 11.1414 13.5732 11.1414C13.7333 11.1414 13.8933 11.0727 14.0159 10.9366C14.2597 10.6632 14.2597 10.2188 14.0158 9.94537Z" fill="white"/>
<path d="M20.1282 8.38773L15.8253 3.55774C15.5815 3.28434 15.1851 3.28434 14.9412 3.55774C14.6974 3.83114 14.6974 4.2756 14.9412 4.549L19.2441 9.37899C19.3667 9.51497 19.5267 9.58371 19.6868 9.58371C19.8468 9.58371 20.0069 9.51641 20.1282 9.37899C20.372 9.10559 20.372 8.66113 20.1282 8.38773Z" fill="white"/>
<path d="M26.2379 6.83146L21.9338 2.00146C21.69 1.72807 21.2935 1.72807 21.0497 2.00146C20.8059 2.27486 20.8059 2.71933 21.0497 2.99273L25.3538 7.82272C25.4763 7.95869 25.6364 8.02744 25.7964 8.02744C25.9565 8.02744 26.1165 7.95876 26.2379 7.82272C26.4818 7.54932 26.4818 7.10485 26.2379 6.83146Z" fill="white"/>
</g>
<defs>
<clipPath id="clip0_1_7">
<rect width="30" height="33.6364" fill="white" transform="translate(0 0.121216)"/>
</clipPath>
</defs>
</svg>
